<svg width="32" height="32" viewBox="0 0 32 32" xmlns="http://www.w3.org/2000/svg">
  <!-- Gradient Definition -->
  <defs>
    <linearGradient id="wellness-gradient" x1="0%" y1="0%" x2="100%" y2="100%">
      <stop offset="0%" style="stop-color:#8B5CF6;stop-opacity:1" />
      <stop offset="50%" style="stop-color:#06B6D4;stop-opacity:1" />
      <stop offset="100%" style="stop-color:#10B981;stop-opacity:1" />
    </linearGradient>
  </defs>
  
  <!-- Background Circle -->
  <circle cx="16" cy="16" r="15" fill="url(#wellness-gradient)" stroke="#ffffff" stroke-width="1"/>
  
  <!-- Meditation Symbol -->
  <g transform="translate(16,16)">
    <!-- Person silhouette -->
    <circle cx="0" cy="-4" r="3" fill="white" opacity="0.9"/>
    <path d="M -4,-1 Q -4,2 -2,4 L 2,4 Q 4,2 4,-1 Q 2,-2 0,-2 Q -2,-2 -4,-1 Z" fill="white" opacity="0.9"/>
    
    <!-- Lotus petals -->
    <path d="M -6,2 Q -8,0 -6,-2 Q -4,0 -6,2 Z" fill="white" opacity="0.6"/>
    <path d="M 6,2 Q 8,0 6,-2 Q 4,0 6,2 Z" fill="white" opacity="0.6"/>
    <path d="M -2,6 Q -4,8 -6,6 Q -4,4 -2,6 Z" fill="white" opacity="0.6"/>
    <path d="M 2,6 Q 4,8 6,6 Q 4,4 2,6 Z" fill="white" opacity="0.6"/>
  </g>
</svg>
